<svg width="40" height="40" viewBox="0 0 40 40" fill="none" xmlns="http://www.w3.org/2000/svg">
<path d="M13.7 29C13.205 29 12.7814 28.8239 12.4292 28.4717C12.077 28.1195 11.9006 27.6956 11.9 27.2V17.0525C11.63 16.8875 11.4125 16.6739 11.2475 16.4117C11.0825 16.1495 11 15.8456 11 15.5V12.8C11 12.305 11.1764 11.8814 11.5292 11.5292C11.882 11.177 12.3056 11.0006 12.8 11H27.2C27.695 11 28.1189 11.1764 28.4717 11.5292C28.8245 11.882 29.0006 12.3056 29 12.8V15.5C29 15.845 28.9175 16.1489 28.7525 16.4117C28.5875 16.6745 28.37 16.8878 28.1 17.0516V27.2C28.1 27.695 27.9239 28.1189 27.5717 28.4717C27.2195 28.8245 26.7956 29.0006 26.3 29H13.7ZM13.7 17.3V27.2H26.3V17.3H13.7ZM12.8 15.5H27.2V12.8H12.8V15.5ZM18.2 21.8H21.8C22.055 21.8 22.2689 21.7136 22.4417 21.5408C22.6145 21.368 22.7006 21.1544 22.7 20.9C22.6994 20.6456 22.613 20.432 22.4408 20.2592C22.2686 20.0864 22.055 20 21.8 20H18.2C17.945 20 17.7314 20.0864 17.5592 20.2592C17.387 20.432 17.3006 20.6456 17.3 20.9C17.2994 21.1544 17.3858 21.3683 17.5592 21.5417C17.7326 21.7151 17.9462 21.8012 18.2 21.8Z" fill="black"/>
</svg>
